<?xml version="1.0" encoding="utf-8"?>
<!-- Generator: Adobe Illustrator 26.0.1, SVG Export Plug-In . SVG Version: 6.00 Build 0)  -->
<svg version="1.1" id="Capa_1" xmlns="http://www.w3.org/2000/svg" xmlns:xlink="http://www.w3.org/1999/xlink" x="0px" y="0px"
	 viewBox="0 0 160 40" style="enable-background:new 0 0 160 40;" xml:space="preserve">
<style type="text/css">
	.st0{fill:#FFFFFF;}
</style>
<g>
	<g>
		<path class="st0" d="M34.4,33c-0.1,0.7-0.3,1.2-0.7,1.6c-0.4,0.4-1,0.6-1.7,0.6c-0.5,0-0.9-0.1-1.3-0.4c-0.4-0.2-0.7-0.6-0.9-1
			c-0.2-0.4-0.3-0.9-0.3-1.5v-0.6c0-0.6,0.1-1.1,0.3-1.6c0.2-0.5,0.5-0.8,0.9-1c0.4-0.2,0.8-0.4,1.4-0.4c0.7,0,1.3,0.2,1.7,0.6
			c0.4,0.4,0.7,0.9,0.7,1.6h-1.1c-0.1-0.5-0.2-0.8-0.4-1c-0.2-0.2-0.5-0.3-0.9-0.3c-0.5,0-0.8,0.2-1.1,0.5c-0.3,0.3-0.4,0.9-0.4,1.5
			v0.6c0,0.7,0.1,1.2,0.4,1.6c0.2,0.4,0.6,0.5,1.1,0.5c0.4,0,0.8-0.1,1-0.3c0.2-0.2,0.4-0.5,0.4-1H34.4z"/>
		<path class="st0" d="M37.5,35h-1.1v-6.3h1.1V35z"/>
		<path class="st0" d="M42.2,32.6h-1.2V35h-1.1v-6.3h2.2c0.7,0,1.3,0.2,1.7,0.5c0.4,0.3,0.6,0.8,0.6,1.4c0,0.4-0.1,0.8-0.3,1.1
			c-0.2,0.3-0.5,0.5-0.8,0.7l1.4,2.6V35h-1.2L42.2,32.6z M40.9,31.7h1.1c0.4,0,0.7-0.1,0.9-0.3c0.2-0.2,0.3-0.4,0.3-0.8
			c0-0.3-0.1-0.6-0.3-0.8c-0.2-0.2-0.5-0.3-0.9-0.3h-1.2V31.7z"/>
		<path class="st0" d="M51,28.7v4.2c0,0.7-0.2,1.2-0.6,1.6c-0.4,0.4-1,0.6-1.7,0.6c-0.7,0-1.3-0.2-1.7-0.6c-0.4-0.4-0.6-0.9-0.6-1.6
			v-4.2h1.1v4.2c0,0.4,0.1,0.7,0.3,1c0.2,0.2,0.5,0.3,0.9,0.3c0.8,0,1.3-0.4,1.3-1.3v-4.2H51z"/>
		<path class="st0" d="M55.7,28.7h1.1v4.4c0,0.6-0.2,1.1-0.6,1.4c-0.4,0.4-0.9,0.5-1.5,0.5c-0.7,0-1.2-0.2-1.5-0.5
			c-0.4-0.3-0.5-0.8-0.5-1.4h1.1c0,0.3,0.1,0.6,0.2,0.8c0.2,0.2,0.4,0.3,0.7,0.3c0.3,0,0.5-0.1,0.7-0.3c0.2-0.2,0.3-0.5,0.3-0.8
			V28.7z"/>
		<path class="st0" d="M62.4,33.5H60L59.5,35h-1.1l2.4-6.3h1l2.4,6.3h-1.1L62.4,33.5z M60.3,32.7h1.8L61.2,30L60.3,32.7z"/>
		<path class="st0" d="M70.8,35h-1.1l-2.8-4.5V35h-1.1v-6.3h1.1l2.8,4.5v-4.5h1.1V35z"/>
		<path class="st0" d="M78.1,32c0,0.6-0.1,1.2-0.3,1.6c-0.2,0.5-0.5,0.8-0.9,1.1c-0.4,0.2-0.9,0.4-1.4,0.4c-0.5,0-1-0.1-1.4-0.4
			c-0.4-0.2-0.7-0.6-0.9-1.1c-0.2-0.5-0.3-1-0.3-1.6v-0.4c0-0.6,0.1-1.2,0.3-1.6c0.2-0.5,0.5-0.8,0.9-1.1c0.4-0.2,0.9-0.4,1.4-0.4
			c0.5,0,1,0.1,1.4,0.4c0.4,0.2,0.7,0.6,0.9,1.1c0.2,0.5,0.3,1,0.3,1.6V32z M77,31.7c0-0.7-0.1-1.2-0.4-1.6
			c-0.3-0.4-0.6-0.6-1.1-0.6c-0.5,0-0.8,0.2-1.1,0.6c-0.3,0.4-0.4,0.9-0.4,1.6V32c0,0.7,0.1,1.2,0.4,1.6c0.3,0.4,0.6,0.6,1.1,0.6
			c0.5,0,0.9-0.2,1.1-0.6c0.3-0.4,0.4-0.9,0.4-1.6V31.7z"/>
		<path class="st0" d="M84.4,32.7V35h-1.1v-6.3h2.4c0.7,0,1.3,0.2,1.7,0.5s0.6,0.9,0.6,1.5c0,0.6-0.2,1.1-0.6,1.4
			c-0.4,0.3-1,0.5-1.7,0.5H84.4z M84.4,31.8h1.3c0.4,0,0.7-0.1,0.9-0.3c0.2-0.2,0.3-0.4,0.3-0.8c0-0.3-0.1-0.6-0.3-0.8
			c-0.2-0.2-0.5-0.3-0.9-0.3h-1.3V31.8z"/>
		<path class="st0" d="M91,34.1h2.9V35h-4v-6.3H91V34.1z"/>
		<path class="st0" d="M99.3,33.5h-2.4L96.4,35h-1.1l2.4-6.3h1L101,35h-1.1L99.3,33.5z M97.2,32.7H99L98.1,30L97.2,32.7z M98.4,27
			h1.2l-1.2,1.3l-0.8,0L98.4,27z"/>
		<path class="st0" d="M105.9,33.4c0-0.3-0.1-0.5-0.3-0.6c-0.2-0.1-0.5-0.3-1.1-0.5c-0.5-0.2-0.9-0.3-1.2-0.5
			c-0.6-0.4-0.9-0.8-0.9-1.4c0-0.5,0.2-0.9,0.6-1.3c0.4-0.3,1-0.5,1.6-0.5c0.4,0,0.8,0.1,1.2,0.2c0.3,0.2,0.6,0.4,0.8,0.7
			c0.2,0.3,0.3,0.6,0.3,1h-1.1c0-0.3-0.1-0.6-0.3-0.8c-0.2-0.2-0.5-0.3-0.9-0.3c-0.4,0-0.6,0.1-0.8,0.2c-0.2,0.2-0.3,0.4-0.3,0.6
			c0,0.2,0.1,0.4,0.3,0.6c0.2,0.2,0.6,0.3,1.1,0.4c0.5,0.1,0.9,0.3,1.2,0.5c0.3,0.2,0.5,0.4,0.7,0.6c0.1,0.2,0.2,0.5,0.2,0.8
			c0,0.5-0.2,0.9-0.6,1.3c-0.4,0.3-0.9,0.5-1.6,0.5c-0.5,0-0.9-0.1-1.3-0.3c-0.4-0.2-0.7-0.4-0.9-0.7c-0.2-0.3-0.3-0.6-0.3-1h1.1
			c0,0.4,0.1,0.6,0.4,0.8c0.2,0.2,0.6,0.3,1,0.3c0.4,0,0.7-0.1,0.9-0.2C105.8,33.8,105.9,33.6,105.9,33.4z"/>
		<path class="st0" d="M113.5,29.6h-2V35h-1.1v-5.4h-1.9v-0.9h5V29.6z"/>
		<path class="st0" d="M116.5,35h-1.1v-6.3h1.1V35z"/>
		<path class="st0" d="M123.6,33c-0.1,0.7-0.3,1.2-0.7,1.6c-0.4,0.4-1,0.6-1.7,0.6c-0.5,0-0.9-0.1-1.3-0.4c-0.4-0.2-0.7-0.6-0.9-1
			c-0.2-0.4-0.3-0.9-0.3-1.5v-0.6c0-0.6,0.1-1.1,0.3-1.6c0.2-0.5,0.5-0.8,0.9-1c0.4-0.2,0.8-0.4,1.4-0.4c0.7,0,1.3,0.2,1.7,0.6
			s0.7,0.9,0.7,1.6h-1.1c-0.1-0.5-0.2-0.8-0.4-1c-0.2-0.2-0.5-0.3-0.9-0.3c-0.5,0-0.8,0.2-1.1,0.5s-0.4,0.9-0.4,1.5v0.6
			c0,0.7,0.1,1.2,0.4,1.6c0.2,0.4,0.6,0.5,1.1,0.5c0.4,0,0.8-0.1,1-0.3c0.2-0.2,0.4-0.5,0.4-1H123.6z"/>
		<path class="st0" d="M130.6,32c0,0.6-0.1,1.2-0.3,1.6c-0.2,0.5-0.5,0.8-0.9,1.1c-0.4,0.2-0.9,0.4-1.4,0.4c-0.5,0-1-0.1-1.4-0.4
			c-0.4-0.2-0.7-0.6-0.9-1.1c-0.2-0.5-0.3-1-0.3-1.6v-0.4c0-0.6,0.1-1.2,0.3-1.6c0.2-0.5,0.5-0.8,0.9-1.1c0.4-0.2,0.9-0.4,1.4-0.4
			c0.5,0,1,0.1,1.4,0.4c0.4,0.2,0.7,0.6,0.9,1.1c0.2,0.5,0.3,1,0.3,1.6V32z M129.5,31.7c0-0.7-0.1-1.2-0.4-1.6
			c-0.3-0.4-0.6-0.6-1.1-0.6c-0.5,0-0.8,0.2-1.1,0.6c-0.3,0.4-0.4,0.9-0.4,1.6V32c0,0.7,0.1,1.2,0.4,1.6c0.3,0.4,0.6,0.6,1.1,0.6
			c0.5,0,0.9-0.2,1.1-0.6c0.3-0.4,0.4-0.9,0.4-1.6V31.7z"/>
	</g>
	<g>
		<path class="st0" d="M13.2,5.3v16.8c0,0.7-0.1,1.4-0.4,2.1c-0.3,0.6-0.6,1.2-1.1,1.6c-0.5,0.5-1,0.8-1.6,1.1
			c-0.6,0.3-1.3,0.4-2,0.3V27c0.6-0.2,1.1-0.6,1.5-1.1c0.4-0.5,0.8-1.1,1-1.8c0.2-0.7,0.3-1.4,0.3-2.1V5.3H13.2z M11,7.1L11,7.1
			c-0.1-0.4-0.2-0.8-0.5-1.1c-0.3-0.3-0.7-0.5-1.1-0.5H9.1V5.3H11V7.1z M13.1,7.1V5.3h1.9v0.2h-0.3c-0.4,0-0.8,0.2-1.1,0.5
			C13.4,6.3,13.2,6.7,13.1,7.1L13.1,7.1z"/>
		<path class="st0" d="M19,5.3v1.5h-0.1c0-0.4-0.1-0.6-0.4-0.9c-0.3-0.2-0.6-0.3-0.9-0.3h-0.4V5.3H19z M21.1,5.3V16
			c0,1.2,0.2,2.2,0.6,3.1c0.4,0.9,1,1.6,1.8,2c0.8,0.5,1.6,0.7,2.6,0.7c1.1,0,2-0.2,2.8-0.7c0.8-0.5,1.4-1.1,1.8-1.9
			c0.4-0.8,0.6-1.8,0.6-2.9v-11h1.3v11c0,1.3-0.3,2.4-0.8,3.4c-0.5,1-1.3,1.7-2.3,2.2c-1,0.5-2.2,0.8-3.6,0.8
			c-1.5,0-2.7-0.3-3.8-0.8c-1.1-0.5-1.9-1.3-2.5-2.2c-0.6-1-0.9-2.1-0.9-3.4v-11H21.1z M22.8,5.3v0.2h-0.4c-0.4,0-0.7,0.1-0.9,0.3
			c-0.3,0.2-0.4,0.5-0.4,0.9h0V5.3H22.8z M31.5,5.3v1.5h-0.1c0-0.4-0.1-0.6-0.4-0.9c-0.3-0.2-0.6-0.3-0.9-0.3h-0.4V5.3H31.5z
			 M34.4,5.3v0.2H34c-0.4,0-0.7,0.1-0.9,0.3c-0.3,0.2-0.4,0.5-0.4,0.9h0V5.3H34.4z"/>
		<path class="st0" d="M38.4,7.1L38.4,7.1c-0.1-0.4-0.2-0.8-0.5-1.1c-0.3-0.3-0.7-0.5-1.1-0.5h-0.3V5.3h1.9V7.1z M38.4,20.6v1.8
			h-1.9v-0.2h0.3c0.4,0,0.8-0.1,1.1-0.5C38.2,21.3,38.3,21,38.4,20.6L38.4,20.6z M40.6,5.3v17h-2.3v-17H40.6z M40.5,7.1V5.3h1.9v0.2
			c0,0-0.1,0-0.3,0c-0.4,0-0.8,0.2-1.1,0.5C40.8,6.3,40.6,6.7,40.5,7.1L40.5,7.1z M47.1,21.5l0.2,0.9h-6.8v-0.9H47.1z M48.7,18
			l-1.3,4.3h-4.3l0.9-0.9c0.8,0,1.5-0.1,2.1-0.4c0.6-0.3,1-0.7,1.4-1.2c0.4-0.5,0.7-1.1,0.9-1.8H48.7z"/>
		<path class="st0" d="M52.2,7.1L52.2,7.1C52.2,6.7,52,6.3,51.7,6c-0.3-0.3-0.7-0.5-1.1-0.5h-0.3V5.3h1.9V7.1z M52.2,20.6v1.8h-1.9
			v-0.2h0.3c0.4,0,0.8-0.1,1.1-0.5C52,21.3,52.2,21,52.2,20.6L52.2,20.6z M54.4,5.3v17h-2.3v-17H54.4z M54.4,7.1V5.3h1.9v0.2
			c0,0-0.1,0-0.3,0c-0.4,0-0.8,0.2-1.1,0.5C54.6,6.3,54.4,6.7,54.4,7.1L54.4,7.1z M54.4,20.6L54.4,20.6c0.1,0.4,0.2,0.8,0.5,1.1
			c0.3,0.3,0.7,0.5,1.1,0.5c0.2,0,0.3,0,0.3,0v0.2h-1.9V20.6z"/>
		<path class="st0" d="M67.6,5c1.8,0,3.4,0.4,4.8,1.1c1.4,0.7,2.4,1.8,3.2,3.1c0.8,1.3,1.1,2.9,1.1,4.7c0,1.8-0.4,3.3-1.1,4.7
			c-0.8,1.3-1.8,2.4-3.2,3.1c-1.4,0.7-2.9,1.1-4.8,1.1c-1.8,0-3.4-0.4-4.7-1.1c-1.4-0.7-2.4-1.8-3.2-3.1c-0.8-1.3-1.1-2.9-1.1-4.7
			c0-1.8,0.4-3.3,1.1-4.7c0.8-1.3,1.8-2.4,3.2-3.1C64.3,5.3,65.9,5,67.6,5z M67.6,21.8c1.3,0,2.4-0.3,3.4-1c1-0.7,1.7-1.6,2.2-2.8
			c0.5-1.2,0.8-2.6,0.8-4.2s-0.3-3-0.8-4.2C72.7,8.4,72,7.4,71,6.8c-1-0.7-2.1-1-3.4-1c-1.3,0-2.4,0.3-3.4,1c-1,0.7-1.7,1.6-2.3,2.8
			c-0.5,1.2-0.8,2.6-0.8,4.2s0.3,3,0.8,4.2c0.5,1.2,1.3,2.1,2.3,2.8C65.2,21.5,66.4,21.8,67.6,21.8z"/>
		<path class="st0" d="M90.4,5c0.3,0,0.6,0,0.9,0c0.4,0,0.7,0.1,1.1,0.1c0.4,0.1,0.7,0.1,1,0.2c0.3,0.1,0.5,0.1,0.6,0.2L94,8.4h-0.2
			c0-0.8-0.3-1.4-0.9-1.9c-0.6-0.5-1.3-0.7-2.1-0.7c-0.9,0-1.6,0.3-2.2,0.8c-0.6,0.5-0.8,1.1-0.8,1.9c0,0.4,0.1,0.7,0.3,1.1
			c0.2,0.4,0.5,0.8,0.9,1.1l4.7,4c0.6,0.4,1,0.9,1.2,1.5c0.2,0.6,0.3,1.2,0.3,1.8c0,1.4-0.5,2.6-1.4,3.4c-0.9,0.9-2.2,1.3-3.7,1.3
			c-0.5,0-1,0-1.6-0.1c-0.6-0.1-1.1-0.2-1.6-0.5c-0.5-0.2-0.9-0.5-1.2-0.8c-0.1-0.3-0.1-0.7-0.1-1.1c0-0.4,0.1-0.9,0.1-1.3
			c0.1-0.5,0.2-0.9,0.4-1.2h0.2c-0.1,0.8,0,1.6,0.4,2.2c0.3,0.6,0.8,1.1,1.4,1.5c0.6,0.3,1.3,0.5,2.1,0.5c1,0,1.7-0.3,2.4-0.9
			c0.6-0.6,0.9-1.3,0.9-2.2c0-0.5-0.1-0.9-0.3-1.3c-0.2-0.4-0.5-0.7-1-1l-4.5-3.8c-0.6-0.5-1.1-1-1.3-1.6c-0.3-0.6-0.4-1.2-0.3-1.8
			c0-0.7,0.2-1.4,0.6-2.1c0.4-0.6,0.9-1.2,1.5-1.5C88.7,5.1,89.5,5,90.4,5z M94.1,5.2v0.5h-2.2V5.2H94.1z"/>
		<path class="st0" d="M99.3,5.3v1.5h-0.1c0-0.4-0.1-0.6-0.4-0.9c-0.3-0.2-0.6-0.3-0.9-0.3h-0.4V5.3H99.3z M101.5,5.3V16
			c0,1.2,0.2,2.2,0.6,3.1c0.4,0.9,1,1.6,1.8,2c0.8,0.5,1.6,0.7,2.6,0.7c1.1,0,2-0.2,2.8-0.7c0.8-0.5,1.4-1.1,1.8-1.9
			c0.4-0.8,0.6-1.8,0.6-2.9v-11h1.3v11c0,1.3-0.3,2.4-0.8,3.4c-0.5,1-1.3,1.7-2.3,2.2c-1,0.5-2.2,0.8-3.6,0.8
			c-1.5,0-2.7-0.3-3.8-0.8c-1.1-0.5-1.9-1.3-2.5-2.2c-0.6-1-0.9-2.1-0.9-3.4v-11H101.5z M103.1,5.3v0.2h-0.4c-0.4,0-0.7,0.1-0.9,0.3
			c-0.3,0.2-0.4,0.5-0.4,0.9h0V5.3H103.1z M111.8,5.3v1.5h-0.1c0-0.4-0.1-0.6-0.4-0.9c-0.3-0.2-0.6-0.3-0.9-0.3H110V5.3H111.8z
			 M114.7,5.3v0.2h-0.4c-0.4,0-0.7,0.1-0.9,0.3c-0.3,0.2-0.4,0.5-0.4,0.9h0V5.3H114.7z"/>
		<path class="st0" d="M132.9,15.2l-0.1,3.9c-0.4,0.7-0.9,1.3-1.5,1.8c-0.6,0.5-1.4,0.9-2.3,1.3c-0.9,0.3-1.9,0.5-3,0.5
			c-1.8,0-3.4-0.4-4.7-1.1c-1.4-0.7-2.4-1.7-3.2-3.1c-0.8-1.3-1.1-2.9-1.1-4.7c0-1.8,0.4-3.3,1.1-4.7c0.8-1.3,1.8-2.3,3.2-3.1
			c1.4-0.7,3-1.1,4.9-1.1c1.2,0,2.3,0.1,3.3,0.4c1,0.3,1.8,0.7,2.5,1.1l0.3,3.7H132c-0.4-1.5-1.1-2.6-2.2-3.3
			c-1.1-0.7-2.3-1.1-3.7-1.1c-1.4,0-2.6,0.3-3.6,1c-1,0.7-1.8,1.6-2.3,2.8s-0.8,2.6-0.8,4.2c0,1.6,0.3,3,0.8,4.2
			c0.5,1.2,1.3,2.1,2.3,2.8c1,0.7,2.1,1,3.4,1.1c1.2,0,2.2-0.2,3.2-0.6c0.9-0.4,1.7-1.1,2.3-2.1c0.6-1,1-2.3,1.2-3.9H132.9z"/>
		<path class="st0" d="M137.6,20.6c-0.1,0.3-0.1,0.6,0,0.8c0.1,0.2,0.2,0.4,0.4,0.5c0.2,0.1,0.4,0.2,0.6,0.2h0.2v0.2h-5v-0.2h0.2
			c0.4,0,0.8-0.1,1.2-0.4c0.4-0.2,0.7-0.6,1-1.2H137.6z M142.8,4.9L143,7L137,22.3h-1.6l6.3-14.6c0,0,0.1-0.2,0.2-0.4
			c0.1-0.2,0.2-0.5,0.3-0.8c0.1-0.3,0.2-0.6,0.3-0.9c0.1-0.3,0.1-0.5,0.1-0.7H142.8z M146,16v0.8h-7.4V16H146z M142.8,4.9l7.5,17.3
			h-2.8L142,8L142.8,4.9z M146.8,20.6h2.7c0.3,0.6,0.6,0.9,1,1.2c0.4,0.2,0.8,0.4,1.2,0.4h0.2v0.2h-6.2v-0.2h0.2
			c0.3,0,0.6-0.1,0.9-0.4C147,21.4,147,21,146.8,20.6z"/>
	</g>
</g>
</svg>
