<?xml version="1.0" encoding="utf-8"?>
<!-- Generator: Adobe Illustrator 26.0.1, SVG Export Plug-In . SVG Version: 6.00 Build 0)  -->
<svg version="1.1" id="Camada_1" xmlns="http://www.w3.org/2000/svg" xmlns:xlink="http://www.w3.org/1999/xlink" x="0px" y="0px"
	 viewBox="0 0 316.7 62.7" style="enable-background:new 0 0 316.7 62.7;" xml:space="preserve">
<style type="text/css">
	.st0{fill:#FFFFFF;}
</style>
<g>
	<g>
		<g>
			<path class="st0" d="M76.2,47.6c-0.9,0-1.7-0.2-2.3-0.6c-0.6-0.4-1-0.9-1.3-1.6c-0.3-0.7-0.4-1.4-0.4-2.3c0-0.9,0.1-1.6,0.4-2.3
				s0.7-1.2,1.3-1.6c0.6-0.4,1.4-0.6,2.3-0.6c0.6,0,1.2,0.1,1.7,0.3c0.5,0.2,0.8,0.5,1.1,0.8c0.3,0.4,0.5,0.8,0.6,1.3h-1.1
				c-0.1-0.4-0.4-0.8-0.8-1c-0.4-0.3-0.9-0.4-1.5-0.4c-0.7,0-1.3,0.2-1.7,0.5c-0.4,0.3-0.7,0.8-0.9,1.3c-0.2,0.5-0.3,1.1-0.3,1.7
				c0,0.6,0.1,1.2,0.3,1.8c0.2,0.5,0.5,1,1,1.3c0.4,0.3,1,0.5,1.7,0.5c0.4,0,0.8-0.1,1.1-0.2c0.3-0.1,0.6-0.3,0.8-0.5
				c0.2-0.2,0.4-0.5,0.5-0.7h1.2c-0.1,0.5-0.3,0.9-0.7,1.3c-0.3,0.4-0.7,0.6-1.2,0.8C77.5,47.5,76.9,47.6,76.2,47.6z"/>
			<path class="st0" d="M81.9,40c-0.2,0-0.4-0.1-0.5-0.2c-0.1-0.1-0.2-0.3-0.2-0.5c0-0.2,0.1-0.4,0.2-0.5c0.1-0.1,0.3-0.2,0.5-0.2
				c0.2,0,0.4,0.1,0.5,0.2c0.1,0.1,0.2,0.3,0.2,0.5c0,0.2-0.1,0.4-0.2,0.5C82.3,39.9,82.1,40,81.9,40z M81.4,47.5v-6.5h1.1v6.5H81.4
				z"/>
			<path class="st0" d="M84.3,47.5v-6.5h1l0,1c0.2-0.3,0.4-0.5,0.6-0.6c0.2-0.2,0.5-0.3,0.7-0.4c0.3-0.1,0.6-0.1,0.9-0.1
				c0.1,0,0.1,0,0.2,0s0.1,0,0.2,0v1h-0.4c-0.5,0-0.9,0.1-1.2,0.3c-0.3,0.2-0.5,0.5-0.7,0.9c-0.1,0.4-0.2,0.8-0.2,1.2v3.2H84.3z"/>
			<path class="st0" d="M91.8,47.5c-0.9,0-1.6-0.2-2.1-0.7c-0.5-0.5-0.7-1.2-0.7-2.2v-3.7h1.1v3.6c0,0.4,0.1,0.8,0.2,1.1
				c0.1,0.3,0.3,0.5,0.6,0.7c0.3,0.2,0.6,0.2,0.9,0.2c0.4,0,0.7-0.1,1-0.2c0.3-0.2,0.4-0.4,0.6-0.7c0.1-0.3,0.2-0.7,0.2-1.1v-3.6
				h1.1v3.7c0,1-0.2,1.7-0.7,2.2C93.4,47.3,92.7,47.5,91.8,47.5z"/>
			<path class="st0" d="M99.3,50.4c-0.4,0-0.9-0.1-1.2-0.2c-0.4-0.1-0.7-0.3-1-0.6c-0.3-0.3-0.4-0.7-0.5-1.1h1.1
				c0.1,0.2,0.2,0.4,0.4,0.6s0.4,0.3,0.6,0.3c0.2,0.1,0.5,0.1,0.7,0.1c0.4,0,0.8-0.1,1.1-0.3c0.3-0.2,0.5-0.4,0.6-0.7
				c0.1-0.3,0.2-0.7,0.2-1.1v-0.9c-0.1,0.2-0.3,0.5-0.6,0.6c-0.2,0.2-0.5,0.3-0.8,0.3c-0.3,0.1-0.6,0.1-0.8,0.1
				c-0.7,0-1.2-0.1-1.6-0.4c-0.4-0.3-0.7-0.7-0.9-1.2c-0.2-0.5-0.3-1.1-0.3-1.7c0-0.6,0.1-1.2,0.3-1.7c0.2-0.5,0.5-0.9,1-1.2
				c0.4-0.3,1-0.4,1.7-0.4c0.4,0,0.8,0.1,1.2,0.2c0.4,0.1,0.7,0.4,1,0.7l0-0.8h1v6.5c0,0.6-0.1,1.1-0.3,1.6c-0.2,0.4-0.6,0.8-1,1
				C100.5,50.3,99.9,50.4,99.3,50.4z M99.2,46.6c0.4,0,0.8-0.1,1.1-0.3c0.3-0.2,0.5-0.5,0.7-0.9c0.2-0.4,0.2-0.8,0.2-1.2
				c0-0.5-0.1-0.9-0.2-1.2c-0.2-0.4-0.4-0.6-0.7-0.8s-0.7-0.3-1.1-0.3c-0.5,0-0.8,0.1-1.1,0.3c-0.3,0.2-0.5,0.5-0.6,0.9
				c-0.1,0.4-0.2,0.8-0.2,1.2c0,0.5,0.1,0.9,0.2,1.2c0.1,0.4,0.3,0.6,0.6,0.9C98.3,46.5,98.7,46.6,99.2,46.6z"/>
			<path class="st0" d="M104.1,47.5v-6.5h1.1v6.5H104.1z M104.1,40l1.1-1.7h1.1l-1.2,1.7H104.1z"/>
			<path class="st0" d="M109.1,47.5c-0.3,0-0.6,0-0.9-0.1c-0.3-0.1-0.5-0.2-0.7-0.4c-0.2-0.2-0.4-0.4-0.5-0.6
				c-0.1-0.2-0.2-0.5-0.2-0.8c0-0.4,0.1-0.7,0.2-0.9c0.1-0.3,0.3-0.5,0.6-0.6c0.2-0.1,0.5-0.3,0.8-0.3c0.3-0.1,0.6-0.1,1-0.1h1.9
				c0-0.4-0.1-0.7-0.2-1c-0.1-0.3-0.3-0.5-0.5-0.6c-0.2-0.2-0.5-0.2-0.9-0.2c-0.2,0-0.4,0-0.6,0.1c-0.2,0-0.4,0.1-0.5,0.2
				c-0.1,0.1-0.2,0.3-0.3,0.4h-1.1c0.1-0.3,0.2-0.6,0.3-0.8c0.2-0.2,0.4-0.4,0.6-0.5c0.2-0.1,0.5-0.2,0.8-0.3s0.6-0.1,0.8-0.1
				c0.9,0,1.6,0.3,2,0.8c0.4,0.6,0.6,1.3,0.6,2.2v3.5h-0.9l-0.1-0.8c-0.2,0.2-0.4,0.4-0.7,0.6c-0.3,0.1-0.5,0.2-0.8,0.3
				C109.6,47.5,109.3,47.5,109.1,47.5z M109.2,46.6c0.4,0,0.8-0.1,1.1-0.2c0.3-0.1,0.5-0.3,0.7-0.6c0.2-0.3,0.2-0.6,0.2-1v-0.3h-1.2
				c-0.3,0-0.5,0-0.8,0c-0.3,0-0.5,0-0.7,0.1c-0.2,0.1-0.4,0.2-0.5,0.3s-0.2,0.3-0.2,0.6c0,0.2,0.1,0.5,0.2,0.6s0.3,0.3,0.5,0.4
				C108.7,46.6,109,46.6,109.2,46.6z"/>
			<path class="st0" d="M117.9,47.5v-8.8h3c0.6,0,1.2,0.1,1.7,0.3c0.5,0.2,0.8,0.5,1.1,1s0.4,1,0.4,1.6c0,0.6-0.1,1.2-0.4,1.6
				c-0.3,0.4-0.7,0.8-1.2,1c-0.5,0.2-1.1,0.3-1.7,0.3h-1.7v2.9H117.9z M118.9,43.6h1.7c0.7,0,1.2-0.2,1.6-0.5
				c0.4-0.3,0.6-0.8,0.6-1.6c0-0.6-0.2-1.1-0.5-1.4c-0.3-0.3-0.8-0.5-1.5-0.5h-1.9V43.6z"/>
			<path class="st0" d="M125.6,47.5v-8.8h1.1v8.8H125.6z"/>
			<path class="st0" d="M130.6,47.5c-0.3,0-0.6,0-0.9-0.1c-0.3-0.1-0.5-0.2-0.7-0.4c-0.2-0.2-0.4-0.4-0.5-0.6
				c-0.1-0.2-0.2-0.5-0.2-0.8c0-0.4,0.1-0.7,0.2-0.9c0.1-0.3,0.3-0.5,0.6-0.6c0.2-0.1,0.5-0.3,0.8-0.3c0.3-0.1,0.6-0.1,1-0.1h1.9
				c0-0.4-0.1-0.7-0.2-1c-0.1-0.3-0.3-0.5-0.5-0.6c-0.2-0.2-0.5-0.2-0.9-0.2c-0.2,0-0.4,0-0.6,0.1c-0.2,0-0.4,0.1-0.5,0.2
				c-0.1,0.1-0.2,0.3-0.3,0.4h-1.1c0.1-0.3,0.2-0.6,0.3-0.8c0.2-0.2,0.4-0.4,0.6-0.5c0.2-0.1,0.5-0.2,0.8-0.3s0.6-0.1,0.8-0.1
				c0.9,0,1.6,0.3,2,0.8c0.4,0.6,0.6,1.3,0.6,2.2v3.5h-0.9l-0.1-0.8c-0.2,0.2-0.4,0.4-0.7,0.6s-0.5,0.2-0.8,0.3
				C131.1,47.5,130.9,47.5,130.6,47.5z M130.7,46.6c0.4,0,0.8-0.1,1.1-0.2c0.3-0.1,0.5-0.3,0.7-0.6c0.2-0.3,0.2-0.6,0.2-1v-0.3h-1.2
				c-0.3,0-0.5,0-0.8,0c-0.3,0-0.5,0-0.7,0.1c-0.2,0.1-0.4,0.2-0.5,0.3s-0.2,0.3-0.2,0.6c0,0.2,0.1,0.5,0.2,0.6s0.3,0.3,0.5,0.4
				C130.3,46.6,130.5,46.6,130.7,46.6z M130.7,39.9l1.1-1.7h1.1l-1.2,1.7H130.7z"/>
			<path class="st0" d="M138,47.5c-0.3,0-0.6,0-0.9-0.1c-0.3-0.1-0.6-0.2-0.8-0.3c-0.3-0.1-0.5-0.3-0.7-0.6
				c-0.2-0.2-0.3-0.5-0.3-0.9h1.1c0.1,0.2,0.2,0.4,0.4,0.5c0.2,0.1,0.4,0.2,0.6,0.3c0.2,0.1,0.5,0.1,0.7,0.1c0.1,0,0.3,0,0.5,0
				c0.2,0,0.3-0.1,0.5-0.1c0.2-0.1,0.3-0.2,0.4-0.3c0.1-0.1,0.2-0.3,0.2-0.5c0-0.2,0-0.3-0.1-0.4c-0.1-0.1-0.2-0.2-0.3-0.3
				c-0.1-0.1-0.3-0.1-0.5-0.2c-0.4-0.1-0.8-0.2-1.2-0.2c-0.4-0.1-0.8-0.2-1.2-0.4c-0.1-0.1-0.2-0.2-0.3-0.3
				c-0.1-0.1-0.2-0.2-0.2-0.3c-0.1-0.1-0.1-0.3-0.2-0.4c0-0.1-0.1-0.3-0.1-0.5c0-0.3,0.1-0.6,0.2-0.8c0.1-0.2,0.3-0.4,0.5-0.6
				c0.2-0.2,0.5-0.3,0.8-0.3c0.3-0.1,0.6-0.1,1-0.1c0.4,0,0.8,0.1,1.2,0.2c0.3,0.1,0.6,0.3,0.8,0.6s0.4,0.6,0.4,1h-1
				c-0.1-0.2-0.2-0.4-0.5-0.6c-0.3-0.2-0.6-0.2-1-0.2c-0.1,0-0.3,0-0.4,0c-0.2,0-0.3,0.1-0.5,0.1c-0.1,0.1-0.3,0.2-0.4,0.3
				c-0.1,0.1-0.1,0.3-0.1,0.5c0,0.2,0,0.3,0.1,0.5c0.1,0.1,0.2,0.2,0.4,0.3c0.2,0.1,0.4,0.1,0.6,0.2c0.3,0.1,0.6,0.1,1,0.2
				c0.3,0.1,0.6,0.1,0.8,0.2c0.3,0.1,0.5,0.2,0.7,0.3c0.2,0.1,0.3,0.3,0.4,0.5c0.1,0.2,0.1,0.4,0.1,0.7c0,0.4-0.1,0.7-0.2,1
				c-0.2,0.2-0.4,0.4-0.6,0.6c-0.3,0.1-0.5,0.2-0.8,0.3C138.6,47.5,138.3,47.5,138,47.5z"/>
			<path class="st0" d="M144.6,47.5c-0.5,0-0.9-0.1-1.2-0.2c-0.3-0.1-0.5-0.4-0.7-0.7c-0.1-0.3-0.2-0.7-0.2-1.2v-3.5h-1.1v-0.9h1.1
				V39h1.1v1.9h1.7v0.9h-1.7v3.4c0,0.4,0.1,0.8,0.2,1c0.2,0.2,0.5,0.3,1,0.3h0.5v0.9H144.6z"/>
			<path class="st0" d="M147.3,40c-0.2,0-0.4-0.1-0.5-0.2c-0.1-0.1-0.2-0.3-0.2-0.5c0-0.2,0.1-0.4,0.2-0.5c0.1-0.1,0.3-0.2,0.5-0.2
				c0.2,0,0.4,0.1,0.5,0.2c0.1,0.1,0.2,0.3,0.2,0.5c0,0.2-0.1,0.4-0.2,0.5C147.6,39.9,147.5,40,147.3,40z M146.7,47.5v-6.5h1.1v6.5
				H146.7z"/>
			<path class="st0" d="M152.4,47.5c-0.7,0-1.3-0.1-1.7-0.4c-0.5-0.3-0.8-0.7-1-1.2c-0.2-0.5-0.3-1.1-0.3-1.7c0-0.6,0.1-1.2,0.3-1.7
				c0.2-0.5,0.6-0.9,1-1.2c0.5-0.3,1.1-0.5,1.8-0.5c0.4,0,0.8,0.1,1.2,0.2s0.6,0.4,0.9,0.7c0.2,0.3,0.4,0.6,0.5,1.1H154
				c-0.1-0.4-0.3-0.6-0.6-0.8c-0.3-0.2-0.6-0.2-0.9-0.2c-0.5,0-0.9,0.1-1.2,0.3c-0.3,0.2-0.5,0.5-0.7,0.9c-0.1,0.4-0.2,0.8-0.2,1.2
				c0,0.4,0.1,0.8,0.2,1.2c0.1,0.4,0.4,0.7,0.7,0.9c0.3,0.2,0.7,0.3,1.2,0.3c0.3,0,0.7-0.1,1-0.2c0.3-0.1,0.5-0.4,0.6-0.8h1.1
				c-0.1,0.4-0.3,0.8-0.5,1.1c-0.3,0.3-0.6,0.5-1,0.6C153.3,47.5,152.9,47.5,152.4,47.5z"/>
			<path class="st0" d="M158.8,47.5c-0.3,0-0.6,0-0.9-0.1c-0.3-0.1-0.5-0.2-0.7-0.4c-0.2-0.2-0.4-0.4-0.5-0.6
				c-0.1-0.2-0.2-0.5-0.2-0.8c0-0.4,0.1-0.7,0.2-0.9c0.1-0.3,0.3-0.5,0.6-0.6c0.2-0.1,0.5-0.3,0.8-0.3c0.3-0.1,0.6-0.1,1-0.1h1.9
				c0-0.4-0.1-0.7-0.2-1c-0.1-0.3-0.3-0.5-0.5-0.6c-0.2-0.2-0.5-0.2-0.9-0.2c-0.2,0-0.4,0-0.6,0.1c-0.2,0-0.4,0.1-0.5,0.2
				c-0.1,0.1-0.2,0.3-0.3,0.4h-1.1c0.1-0.3,0.2-0.6,0.3-0.8c0.2-0.2,0.4-0.4,0.6-0.5c0.2-0.1,0.5-0.2,0.8-0.3s0.6-0.1,0.8-0.1
				c0.9,0,1.6,0.3,2,0.8c0.4,0.6,0.6,1.3,0.6,2.2v3.5h-0.9l-0.1-0.8c-0.2,0.2-0.4,0.4-0.7,0.6c-0.3,0.1-0.5,0.2-0.8,0.3
				C159.3,47.5,159,47.5,158.8,47.5z M158.9,46.6c0.4,0,0.8-0.1,1.1-0.2c0.3-0.1,0.5-0.3,0.7-0.6c0.2-0.3,0.2-0.6,0.2-1v-0.3h-1.2
				c-0.3,0-0.5,0-0.8,0c-0.3,0-0.5,0-0.7,0.1c-0.2,0.1-0.4,0.2-0.5,0.3c-0.1,0.1-0.2,0.3-0.2,0.6c0,0.2,0.1,0.5,0.2,0.6
				c0.1,0.2,0.3,0.3,0.5,0.4C158.4,46.6,158.7,46.6,158.9,46.6z"/>
			<path class="st0" d="M167.5,47.5v-8.8h5.9v1h-4.8v3h4.3v1h-4.3v2.9h4.8v1H167.5z"/>
			<path class="st0" d="M177.4,47.5c-0.3,0-0.6,0-0.9-0.1c-0.3-0.1-0.6-0.2-0.8-0.3c-0.3-0.1-0.5-0.3-0.7-0.6
				c-0.2-0.2-0.3-0.5-0.3-0.9h1.1c0.1,0.2,0.2,0.4,0.4,0.5c0.2,0.1,0.4,0.2,0.6,0.3c0.2,0.1,0.5,0.1,0.7,0.1c0.1,0,0.3,0,0.5,0
				c0.2,0,0.3-0.1,0.5-0.1c0.2-0.1,0.3-0.2,0.4-0.3c0.1-0.1,0.2-0.3,0.2-0.5c0-0.2,0-0.3-0.1-0.4c-0.1-0.1-0.2-0.2-0.3-0.3
				c-0.1-0.1-0.3-0.1-0.5-0.2c-0.4-0.1-0.8-0.2-1.2-0.2c-0.4-0.1-0.8-0.2-1.2-0.4c-0.1-0.1-0.2-0.2-0.3-0.3
				c-0.1-0.1-0.2-0.2-0.2-0.3c-0.1-0.1-0.1-0.3-0.2-0.4c0-0.1-0.1-0.3-0.1-0.5c0-0.3,0.1-0.6,0.2-0.8c0.1-0.2,0.3-0.4,0.5-0.6
				c0.2-0.2,0.5-0.3,0.8-0.3c0.3-0.1,0.6-0.1,1-0.1c0.4,0,0.8,0.1,1.2,0.2c0.3,0.1,0.6,0.3,0.8,0.6s0.4,0.6,0.4,1h-1
				c-0.1-0.2-0.2-0.4-0.5-0.6c-0.3-0.2-0.6-0.2-1-0.2c-0.1,0-0.3,0-0.4,0c-0.2,0-0.3,0.1-0.5,0.1c-0.1,0.1-0.3,0.2-0.4,0.3
				c-0.1,0.1-0.1,0.3-0.1,0.5c0,0.2,0,0.3,0.1,0.5c0.1,0.1,0.2,0.2,0.4,0.3c0.2,0.1,0.4,0.1,0.6,0.2c0.3,0.1,0.6,0.1,1,0.2
				c0.3,0.1,0.6,0.1,0.8,0.2c0.3,0.1,0.5,0.2,0.7,0.3c0.2,0.1,0.3,0.3,0.4,0.5c0.1,0.2,0.1,0.4,0.1,0.7c0,0.4-0.1,0.7-0.2,1
				c-0.2,0.2-0.4,0.4-0.6,0.6s-0.5,0.2-0.8,0.3C178,47.5,177.7,47.5,177.4,47.5z"/>
			<path class="st0" d="M184.1,47.5c-0.5,0-0.9-0.1-1.2-0.2s-0.5-0.4-0.7-0.7c-0.1-0.3-0.2-0.7-0.2-1.2v-3.5H181v-0.9h1.1V39h1.1
				v1.9h1.7v0.9h-1.7v3.4c0,0.4,0.1,0.8,0.2,1c0.2,0.2,0.5,0.3,1,0.3h0.5v0.9H184.1z"/>
			<path class="st0" d="M189,47.5c-0.7,0-1.3-0.1-1.7-0.4c-0.5-0.3-0.8-0.7-1-1.2s-0.3-1.1-0.3-1.7c0-0.7,0.1-1.2,0.4-1.7
				c0.2-0.5,0.6-0.9,1-1.2c0.5-0.3,1-0.4,1.7-0.4c0.5,0,1,0.1,1.3,0.3c0.4,0.2,0.7,0.5,0.9,0.8c0.2,0.3,0.4,0.7,0.5,1.1
				s0.2,0.8,0.1,1.2c0,0.1,0,0.1,0,0.2c0,0.1,0,0.1,0,0.2H187c0,0.4,0.1,0.7,0.3,1c0.2,0.3,0.4,0.5,0.7,0.7c0.3,0.2,0.6,0.3,1.1,0.3
				c0.2,0,0.4,0,0.7-0.1c0.2-0.1,0.4-0.1,0.6-0.3c0.2-0.1,0.3-0.3,0.4-0.5h1.1c-0.1,0.4-0.3,0.8-0.6,1c-0.3,0.3-0.6,0.5-1,0.6
				C189.8,47.5,189.4,47.5,189,47.5z M187,43.7h3.8c0-0.4-0.1-0.7-0.2-1c-0.2-0.3-0.4-0.5-0.6-0.7c-0.3-0.2-0.6-0.2-1-0.2
				c-0.4,0-0.7,0.1-1,0.3c-0.3,0.2-0.5,0.4-0.6,0.7C187.2,43,187.1,43.3,187,43.7z M188.5,40l1.1-1.7h1.1l-1.2,1.7H188.5z"/>
			<path class="st0" d="M196.2,47.5c-0.5,0-0.9-0.1-1.2-0.2s-0.5-0.4-0.7-0.7c-0.1-0.3-0.2-0.7-0.2-1.2v-3.5H193v-0.9h1.1V39h1.1
				v1.9h1.7v0.9h-1.7v3.4c0,0.4,0.1,0.8,0.2,1c0.2,0.2,0.5,0.3,1,0.3h0.5v0.9H196.2z"/>
			<path class="st0" d="M198.8,40c-0.2,0-0.4-0.1-0.5-0.2c-0.1-0.1-0.2-0.3-0.2-0.5c0-0.2,0.1-0.4,0.2-0.5c0.1-0.1,0.3-0.2,0.5-0.2
				c0.2,0,0.4,0.1,0.5,0.2c0.1,0.1,0.2,0.3,0.2,0.5c0,0.2-0.1,0.4-0.2,0.5C199.2,39.9,199,40,198.8,40z M198.3,47.5v-6.5h1.1v6.5
				H198.3z"/>
			<path class="st0" d="M204,47.5c-0.7,0-1.3-0.1-1.7-0.4c-0.5-0.3-0.8-0.7-1-1.2c-0.2-0.5-0.3-1.1-0.3-1.7c0-0.6,0.1-1.2,0.3-1.7
				c0.2-0.5,0.6-0.9,1-1.2c0.5-0.3,1.1-0.5,1.8-0.5c0.4,0,0.8,0.1,1.2,0.2s0.6,0.4,0.9,0.7c0.2,0.3,0.4,0.6,0.5,1.1h-1.1
				c-0.1-0.4-0.3-0.6-0.6-0.8c-0.3-0.2-0.6-0.2-0.9-0.2c-0.5,0-0.9,0.1-1.2,0.3c-0.3,0.2-0.5,0.5-0.7,0.9c-0.1,0.4-0.2,0.8-0.2,1.2
				c0,0.4,0.1,0.8,0.2,1.2c0.1,0.4,0.4,0.7,0.7,0.9c0.3,0.2,0.7,0.3,1.2,0.3c0.3,0,0.7-0.1,1-0.2c0.3-0.1,0.5-0.4,0.6-0.8h1.1
				c-0.1,0.4-0.3,0.8-0.5,1.1c-0.3,0.3-0.6,0.5-1,0.6C204.8,47.5,204.4,47.5,204,47.5z"/>
			<path class="st0" d="M210.3,47.5c-0.3,0-0.6,0-0.9-0.1c-0.3-0.1-0.5-0.2-0.7-0.4c-0.2-0.2-0.4-0.4-0.5-0.6
				c-0.1-0.2-0.2-0.5-0.2-0.8c0-0.4,0.1-0.7,0.2-0.9c0.1-0.3,0.3-0.5,0.6-0.6c0.2-0.1,0.5-0.3,0.8-0.3c0.3-0.1,0.6-0.1,1-0.1h1.9
				c0-0.4-0.1-0.7-0.2-1c-0.1-0.3-0.3-0.5-0.5-0.6c-0.2-0.2-0.5-0.2-0.9-0.2c-0.2,0-0.4,0-0.6,0.1c-0.2,0-0.4,0.1-0.5,0.2
				c-0.1,0.1-0.2,0.3-0.3,0.4h-1.1c0.1-0.3,0.2-0.6,0.3-0.8c0.2-0.2,0.4-0.4,0.6-0.5c0.2-0.1,0.5-0.2,0.8-0.3s0.6-0.1,0.8-0.1
				c0.9,0,1.6,0.3,2,0.8c0.4,0.6,0.6,1.3,0.6,2.2v3.5h-0.9l-0.1-0.8c-0.2,0.2-0.4,0.4-0.7,0.6s-0.5,0.2-0.8,0.3
				C210.8,47.5,210.6,47.5,210.3,47.5z M210.4,46.6c0.4,0,0.8-0.1,1.1-0.2c0.3-0.1,0.5-0.3,0.7-0.6c0.2-0.3,0.2-0.6,0.2-1v-0.3h-1.2
				c-0.3,0-0.5,0-0.8,0c-0.3,0-0.5,0-0.7,0.1c-0.2,0.1-0.4,0.2-0.5,0.3s-0.2,0.3-0.2,0.6c0,0.2,0.1,0.5,0.2,0.6s0.3,0.3,0.5,0.4
				C210,46.6,210.2,46.6,210.4,46.6z"/>
			<path class="st0" d="M221.5,47.6c-0.4,0-0.7,0-1-0.1c-0.3-0.1-0.6-0.2-0.9-0.4c-0.2-0.2-0.4-0.4-0.6-0.7c-0.1-0.3-0.2-0.6-0.2-1
				c0-0.4,0.1-0.7,0.2-1c0.1-0.3,0.4-0.6,0.6-0.8c0.3-0.2,0.6-0.5,1-0.6c-0.3-0.3-0.6-0.6-0.7-1c-0.2-0.3-0.2-0.7-0.2-1
				c0-0.4,0.1-0.7,0.2-1.1c0.2-0.3,0.4-0.6,0.8-0.8c0.3-0.2,0.8-0.3,1.3-0.3c0.4,0,0.7,0.1,1.1,0.2c0.3,0.1,0.5,0.4,0.7,0.7
				c0.2,0.3,0.3,0.6,0.3,1.1c0,0.3-0.1,0.7-0.3,1c-0.2,0.3-0.4,0.6-0.7,0.8c-0.3,0.2-0.6,0.5-0.9,0.6l1.9,2.2
				c0.1-0.2,0.3-0.4,0.3-0.7c0.1-0.3,0.2-0.6,0.2-0.9h1c0,0.5-0.1,0.9-0.3,1.3c-0.2,0.4-0.4,0.7-0.6,1l1.4,1.6h-1.4l-0.7-0.8
				c-0.3,0.3-0.7,0.5-1.1,0.7C222.4,47.5,222,47.6,221.5,47.6z M221.7,46.6c0.3,0,0.6,0,0.9-0.1s0.6-0.3,0.8-0.5l-2.2-2.5
				c-0.2,0.1-0.4,0.3-0.6,0.4c-0.2,0.2-0.3,0.4-0.5,0.6c-0.1,0.2-0.2,0.5-0.2,0.7c0,0.3,0.1,0.6,0.3,0.8c0.2,0.2,0.4,0.4,0.7,0.5
				C221.1,46.5,221.4,46.6,221.7,46.6z M221.6,42.3c0.2-0.1,0.4-0.3,0.6-0.4c0.2-0.2,0.4-0.4,0.6-0.6c0.2-0.2,0.2-0.4,0.2-0.7
				c0-0.2,0-0.4-0.1-0.6s-0.2-0.3-0.4-0.4c-0.2-0.1-0.4-0.1-0.6-0.1c-0.4,0-0.7,0.1-0.9,0.3c-0.2,0.2-0.3,0.5-0.3,0.8
				c0,0.2,0,0.4,0.1,0.6c0.1,0.2,0.2,0.4,0.3,0.5C221.3,42,221.4,42.2,221.6,42.3z"/>
			<path class="st0" d="M231.2,47.5v-8.8h3.3c0.5,0,0.9,0,1.3,0.1c0.4,0.1,0.7,0.3,1,0.5c0.3,0.2,0.5,0.5,0.6,0.9
				c0.1,0.4,0.2,0.8,0.2,1.3c0,0.5-0.1,0.9-0.3,1.2c-0.2,0.3-0.4,0.6-0.7,0.8c-0.3,0.2-0.6,0.4-1,0.5l1.8,3.5h-1.2l-1.7-3.3h-2.3
				v3.3H231.2z M232.3,43.2h1.9c0.3,0,0.6,0,0.9-0.1c0.3,0,0.5-0.1,0.8-0.3c0.2-0.1,0.4-0.3,0.5-0.5c0.1-0.2,0.2-0.5,0.2-0.9
				c0-0.4-0.1-0.8-0.2-1c-0.2-0.3-0.4-0.4-0.7-0.5c-0.3-0.1-0.7-0.2-1.2-0.2h-2.1V43.2z"/>
			<path class="st0" d="M242,47.5c-0.7,0-1.3-0.1-1.7-0.4c-0.5-0.3-0.8-0.7-1-1.2s-0.3-1.1-0.3-1.7c0-0.7,0.1-1.2,0.4-1.7
				c0.2-0.5,0.6-0.9,1-1.2c0.5-0.3,1-0.4,1.7-0.4c0.5,0,1,0.1,1.3,0.3c0.4,0.2,0.7,0.5,0.9,0.8c0.2,0.3,0.4,0.7,0.5,1.1
				s0.2,0.8,0.1,1.2c0,0.1,0,0.1,0,0.2c0,0.1,0,0.1,0,0.2H240c0,0.4,0.1,0.7,0.3,1c0.2,0.3,0.4,0.5,0.7,0.7c0.3,0.2,0.6,0.3,1.1,0.3
				c0.2,0,0.4,0,0.7-0.1c0.2-0.1,0.4-0.1,0.6-0.3c0.2-0.1,0.3-0.3,0.4-0.5h1.1c-0.1,0.4-0.3,0.8-0.6,1c-0.3,0.3-0.6,0.5-1,0.6
				C242.8,47.5,242.4,47.5,242,47.5z M240,43.7h3.8c0-0.4-0.1-0.7-0.2-1c-0.2-0.3-0.4-0.5-0.6-0.7c-0.3-0.2-0.6-0.2-1-0.2
				c-0.4,0-0.7,0.1-1,0.3s-0.5,0.4-0.6,0.7C240.1,43,240.1,43.3,240,43.7z"/>
			<path class="st0" d="M246.5,49.8v-8.9h1l0,1c0.2-0.3,0.5-0.6,0.9-0.8c0.4-0.2,0.8-0.3,1.2-0.3c0.7,0,1.2,0.1,1.6,0.4
				c0.4,0.3,0.7,0.7,0.9,1.2c0.2,0.5,0.3,1.1,0.3,1.7c0,0.6-0.1,1.2-0.3,1.7c-0.2,0.5-0.5,0.9-1,1.2s-1,0.4-1.7,0.4
				c-0.3,0-0.6,0-0.9-0.1c-0.3-0.1-0.5-0.2-0.7-0.3c-0.2-0.1-0.4-0.3-0.5-0.5v3.2H246.5z M249.6,46.6c0.5,0,0.9-0.1,1.1-0.3
				c0.3-0.2,0.5-0.5,0.6-0.9c0.1-0.4,0.2-0.8,0.2-1.2c0-0.4-0.1-0.9-0.2-1.2c-0.1-0.4-0.3-0.7-0.6-0.9c-0.3-0.2-0.7-0.3-1.2-0.3
				c-0.4,0-0.8,0.1-1.1,0.3c-0.3,0.2-0.5,0.5-0.7,0.9c-0.2,0.4-0.2,0.8-0.2,1.2c0,0.5,0.1,0.9,0.2,1.2c0.1,0.4,0.4,0.6,0.7,0.9
				C248.7,46.5,249.1,46.6,249.6,46.6z"/>
			<path class="st0" d="M256.3,47.5c-0.3,0-0.6,0-0.9-0.1c-0.3-0.1-0.5-0.2-0.7-0.4c-0.2-0.2-0.4-0.4-0.5-0.6
				c-0.1-0.2-0.2-0.5-0.2-0.8c0-0.4,0.1-0.7,0.2-0.9c0.1-0.3,0.3-0.5,0.6-0.6c0.2-0.1,0.5-0.3,0.8-0.3c0.3-0.1,0.6-0.1,1-0.1h1.9
				c0-0.4-0.1-0.7-0.2-1c-0.1-0.3-0.3-0.5-0.5-0.6c-0.2-0.2-0.5-0.2-0.9-0.2c-0.2,0-0.4,0-0.6,0.1c-0.2,0-0.4,0.1-0.5,0.2
				c-0.1,0.1-0.2,0.3-0.3,0.4h-1.1c0.1-0.3,0.2-0.6,0.3-0.8c0.2-0.2,0.4-0.4,0.6-0.5c0.2-0.1,0.5-0.2,0.8-0.3s0.6-0.1,0.8-0.1
				c0.9,0,1.6,0.3,2,0.8c0.4,0.6,0.6,1.3,0.6,2.2v3.5h-0.9l-0.1-0.8c-0.2,0.2-0.4,0.4-0.7,0.6s-0.5,0.2-0.8,0.3
				C256.7,47.5,256.5,47.5,256.3,47.5z M256.4,46.6c0.4,0,0.8-0.1,1.1-0.2c0.3-0.1,0.5-0.3,0.7-0.6c0.2-0.3,0.2-0.6,0.2-1v-0.3h-1.2
				c-0.3,0-0.5,0-0.8,0c-0.3,0-0.5,0-0.7,0.1c-0.2,0.1-0.4,0.2-0.5,0.3s-0.2,0.3-0.2,0.6c0,0.2,0.1,0.5,0.2,0.6s0.3,0.3,0.5,0.4
				C255.9,46.6,256.1,46.6,256.4,46.6z"/>
			<path class="st0" d="M261.2,47.5v-6.5h1l0,1c0.2-0.3,0.4-0.5,0.6-0.6c0.2-0.2,0.5-0.3,0.7-0.4c0.3-0.1,0.6-0.1,0.9-0.1
				c0.1,0,0.1,0,0.2,0c0.1,0,0.1,0,0.2,0v1h-0.4c-0.5,0-0.9,0.1-1.2,0.3c-0.3,0.2-0.5,0.5-0.7,0.9c-0.1,0.4-0.2,0.8-0.2,1.2v3.2
				H261.2z"/>
			<path class="st0" d="M268.1,47.5c-0.3,0-0.6,0-0.9-0.1c-0.3-0.1-0.5-0.2-0.7-0.4c-0.2-0.2-0.4-0.4-0.5-0.6
				c-0.1-0.2-0.2-0.5-0.2-0.8c0-0.4,0.1-0.7,0.2-0.9c0.1-0.3,0.3-0.5,0.6-0.6c0.2-0.1,0.5-0.3,0.8-0.3c0.3-0.1,0.6-0.1,1-0.1h1.9
				c0-0.4-0.1-0.7-0.2-1c-0.1-0.3-0.3-0.5-0.5-0.6c-0.2-0.2-0.5-0.2-0.9-0.2c-0.2,0-0.4,0-0.6,0.1c-0.2,0-0.4,0.1-0.5,0.2
				c-0.1,0.1-0.2,0.3-0.3,0.4h-1.1c0.1-0.3,0.2-0.6,0.3-0.8c0.2-0.2,0.4-0.4,0.6-0.5c0.2-0.1,0.5-0.2,0.8-0.3
				c0.3-0.1,0.6-0.1,0.8-0.1c0.9,0,1.6,0.3,2,0.8c0.4,0.6,0.6,1.3,0.6,2.2v3.5h-0.9l-0.1-0.8c-0.2,0.2-0.4,0.4-0.7,0.6
				c-0.3,0.1-0.5,0.2-0.8,0.3C268.6,47.5,268.4,47.5,268.1,47.5z M268.2,46.6c0.4,0,0.8-0.1,1.1-0.2c0.3-0.1,0.5-0.3,0.7-0.6
				c0.2-0.3,0.2-0.6,0.2-1v-0.3h-1.2c-0.3,0-0.5,0-0.8,0c-0.3,0-0.5,0-0.7,0.1c-0.2,0.1-0.4,0.2-0.5,0.3s-0.2,0.3-0.2,0.6
				c0,0.2,0.1,0.5,0.2,0.6s0.3,0.3,0.5,0.4C267.8,46.6,268,46.6,268.2,46.6z"/>
			<path class="st0" d="M275.7,47.5c-0.7,0-1.2-0.1-1.6-0.4c-0.4-0.3-0.7-0.7-0.9-1.2c-0.2-0.5-0.3-1.1-0.3-1.7
				c0-0.6,0.1-1.2,0.3-1.7c0.2-0.5,0.5-0.9,1-1.2s1-0.4,1.7-0.4c0.3,0,0.5,0,0.8,0.1c0.3,0.1,0.5,0.2,0.7,0.3
				c0.2,0.1,0.4,0.3,0.6,0.5v-3.1h1.1v8.8h-1l0-1c-0.1,0.2-0.3,0.4-0.6,0.6c-0.2,0.2-0.5,0.3-0.8,0.3
				C276.3,47.5,276,47.5,275.7,47.5z M275.9,46.6c0.4,0,0.8-0.1,1.1-0.3c0.3-0.2,0.5-0.5,0.7-0.9c0.2-0.4,0.2-0.8,0.2-1.2
				c0-0.5-0.1-0.9-0.2-1.2c-0.2-0.4-0.4-0.6-0.7-0.8s-0.7-0.3-1.1-0.3c-0.5,0-0.8,0.1-1.1,0.3c-0.3,0.2-0.5,0.5-0.6,0.9
				c-0.1,0.4-0.2,0.8-0.2,1.2c0,0.3,0,0.6,0.1,0.9c0.1,0.3,0.2,0.5,0.3,0.8c0.2,0.2,0.4,0.4,0.6,0.5
				C275.2,46.6,275.5,46.6,275.9,46.6z"/>
			<path class="st0" d="M283.6,47.5c-0.7,0-1.3-0.1-1.7-0.4c-0.5-0.3-0.8-0.7-1-1.2s-0.3-1.1-0.3-1.7c0-0.7,0.1-1.2,0.3-1.7
				c0.2-0.5,0.6-0.9,1-1.2c0.5-0.3,1-0.4,1.7-0.4c0.7,0,1.3,0.1,1.7,0.4c0.5,0.3,0.8,0.7,1,1.2c0.2,0.5,0.3,1.1,0.3,1.7
				c0,0.6-0.1,1.2-0.3,1.7c-0.2,0.5-0.6,0.9-1,1.2C284.9,47.4,284.3,47.5,283.6,47.5z M283.6,46.6c0.5,0,0.9-0.1,1.2-0.3
				c0.3-0.2,0.5-0.5,0.7-0.9c0.1-0.4,0.2-0.8,0.2-1.2s-0.1-0.9-0.2-1.2c-0.1-0.4-0.4-0.7-0.7-0.9c-0.3-0.2-0.7-0.3-1.2-0.3
				c-0.5,0-0.9,0.1-1.2,0.3c-0.3,0.2-0.5,0.5-0.7,0.9c-0.1,0.4-0.2,0.8-0.2,1.2s0.1,0.9,0.2,1.2c0.1,0.4,0.4,0.7,0.7,0.9
				C282.8,46.5,283.2,46.6,283.6,46.6z"/>
			<path class="st0" d="M288.4,47.5v-6.5h1l0,1c0.2-0.3,0.4-0.5,0.6-0.6c0.2-0.2,0.5-0.3,0.7-0.4c0.3-0.1,0.6-0.1,0.9-0.1
				c0.1,0,0.1,0,0.2,0s0.1,0,0.2,0v1h-0.4c-0.5,0-0.9,0.1-1.2,0.3c-0.3,0.2-0.5,0.5-0.7,0.9c-0.1,0.4-0.2,0.8-0.2,1.2v3.2H288.4z"/>
			<path class="st0" d="M295.3,47.5c-0.3,0-0.6,0-0.9-0.1c-0.3-0.1-0.5-0.2-0.7-0.4c-0.2-0.2-0.4-0.4-0.5-0.6
				c-0.1-0.2-0.2-0.5-0.2-0.8c0-0.4,0.1-0.7,0.2-0.9c0.1-0.3,0.3-0.5,0.6-0.6c0.2-0.1,0.5-0.3,0.8-0.3c0.3-0.1,0.6-0.1,1-0.1h1.9
				c0-0.4-0.1-0.7-0.2-1c-0.1-0.3-0.3-0.5-0.5-0.6c-0.2-0.2-0.5-0.2-0.9-0.2c-0.2,0-0.4,0-0.6,0.1c-0.2,0-0.4,0.1-0.5,0.2
				c-0.1,0.1-0.2,0.3-0.3,0.4h-1.1c0.1-0.3,0.2-0.6,0.3-0.8c0.2-0.2,0.4-0.4,0.6-0.5c0.2-0.1,0.5-0.2,0.8-0.3
				c0.3-0.1,0.6-0.1,0.8-0.1c0.9,0,1.6,0.3,2,0.8c0.4,0.6,0.6,1.3,0.6,2.2v3.5h-0.9l-0.1-0.8c-0.2,0.2-0.4,0.4-0.7,0.6
				s-0.5,0.2-0.8,0.3C295.8,47.5,295.5,47.5,295.3,47.5z M295.4,46.6c0.4,0,0.8-0.1,1.1-0.2c0.3-0.1,0.5-0.3,0.7-0.6
				c0.2-0.3,0.2-0.6,0.2-1v-0.3h-1.2c-0.3,0-0.5,0-0.8,0c-0.3,0-0.5,0-0.7,0.1c-0.2,0.1-0.4,0.2-0.5,0.3c-0.1,0.1-0.2,0.3-0.2,0.6
				c0,0.2,0.1,0.5,0.2,0.6c0.1,0.2,0.3,0.3,0.5,0.4C294.9,46.6,295.1,46.6,295.4,46.6z"/>
		</g>
		<g>
			<path class="st0" d="M72.2,28.7c0.5,0,0.8-0.1,1.1-0.2c0.2-0.1,0.4-0.4,0.5-0.7c0.1-0.4,0.1-0.8,0.1-1.5v-9.9c0-0.4,0-0.8,0-1.2
				c0-0.4,0-0.7,0.1-0.9c-0.3,0-0.6,0-1,0c-0.4,0-0.7,0-0.9,0v-1.6l6.7,0c1.6,0,3,0.2,4.2,0.7c1.2,0.4,2.2,1.1,3,1.8
				C87,16,87.6,16.9,88,18c0.4,1,0.6,2.2,0.6,3.3c0,1-0.2,2.1-0.6,3.1c-0.4,1-0.9,2-1.7,2.8c-0.8,0.9-1.8,1.5-3,2
				c-1.2,0.5-2.7,0.8-4.3,0.8h-6.9V28.7z M77.1,26.4c0,0.4,0,0.9,0,1.2c0,0.4,0,0.7-0.1,0.9c0.3,0,0.6,0,0.9,0c0.3,0,0.6,0,0.9,0
				c0.3,0,0.5,0,0.7,0c1,0,1.8-0.2,2.5-0.6c0.7-0.4,1.3-0.9,1.8-1.5c0.5-0.6,0.9-1.4,1.1-2.2c0.2-0.8,0.4-1.7,0.4-2.6
				c0-1.6-0.3-3-0.8-4.1c-0.5-1.1-1.2-1.9-2.2-2.5c-0.9-0.6-2.1-0.9-3.5-0.9c-0.5,0-0.8,0-1.1,0.2c-0.3,0.1-0.4,0.4-0.5,0.7
				c-0.1,0.3-0.1,0.8-0.1,1.5V26.4z"/>
			<path class="st0" d="M93.6,30.1v-1.4c0.5,0,0.8-0.1,1.1-0.2c0.2-0.1,0.4-0.4,0.5-0.7c0.1-0.4,0.1-0.8,0.1-1.5v-9.9
				c0-0.4,0-0.8,0-1.2c0-0.4,0-0.7,0.1-0.9c-0.3,0-0.6,0-1,0c-0.4,0-0.7,0-0.9,0v-1.6c1.1,0,2.2,0,3.3,0c1.1,0,2.2,0,3.3,0
				c1.5,0,2.8,0.2,3.8,0.5c1,0.3,1.8,0.9,2.4,1.6c0.5,0.7,0.8,1.7,0.8,2.9c0,0.7-0.2,1.3-0.5,2c-0.3,0.6-0.8,1.2-1.4,1.7
				c-0.6,0.5-1.5,0.9-2.6,1.2c0.3,0.2,0.6,0.4,0.9,0.7c0.3,0.3,0.6,0.7,0.8,1l1.3,2.1c0.3,0.5,0.6,0.9,0.9,1.3
				c0.3,0.3,0.6,0.6,0.9,0.8c0.3,0.2,0.7,0.3,1.1,0.3v1.4h-3.8c-0.3-0.3-0.7-0.6-1-1c-0.3-0.4-0.6-0.9-1-1.4l-1.8-2.8
				c-0.2-0.3-0.4-0.7-0.6-1c-0.2-0.3-0.4-0.6-0.6-0.8c-0.3,0-0.5,0-0.7,0c-0.2,0-0.4,0-0.7,0v3.4c0,0.5,0,0.9,0,1.3
				c0,0.4,0,0.7-0.1,0.9c0.2,0,0.4,0,0.7,0c0.3,0,0.5,0,0.8,0c0.2,0,0.4,0,0.6,0v1.6H93.6z M99.7,21.5c0.9,0,1.7-0.2,2.3-0.4
				c0.6-0.3,1.1-0.7,1.4-1.2c0.3-0.6,0.5-1.3,0.5-2.2c0-0.7-0.1-1.3-0.3-1.8c-0.2-0.5-0.5-0.8-0.9-1.1c-0.4-0.2-0.8-0.4-1.2-0.5
				c-0.4-0.1-0.9-0.1-1.3-0.1c-0.4,0-0.8,0.1-1,0.2c-0.2,0.1-0.4,0.4-0.5,0.7c-0.1,0.3-0.1,0.8-0.1,1.4v5c0.2,0,0.4,0,0.6,0
				C99.3,21.5,99.5,21.5,99.7,21.5z"/>
			<path class="st0" d="M114.8,30.5c-0.5,0-0.9-0.2-1.2-0.5s-0.5-0.8-0.5-1.3c0-0.5,0.2-0.9,0.5-1.3c0.3-0.4,0.7-0.5,1.2-0.5
				c0.5,0,0.9,0.2,1.2,0.5c0.3,0.4,0.5,0.8,0.5,1.3c0,0.5-0.2,0.9-0.5,1.3S115.3,30.5,114.8,30.5z"/>
			<path class="st0" d="M133.6,30.5c-0.6,0-1.1-0.1-1.6-0.3c-0.5-0.2-0.9-0.5-1.2-0.8c-0.3-0.4-0.4-0.8-0.4-1.2
				c0-0.5,0.1-0.9,0.4-1.2c0.2-0.4,0.6-0.6,1.1-0.6c0.6,0,1,0.1,1.2,0.4c0.2,0.3,0.4,0.7,0.4,1c0,0.1,0,0.2,0,0.4
				c0,0.1-0.1,0.3-0.1,0.4c0.1,0.2,0.2,0.3,0.4,0.3c0.2,0.1,0.3,0.1,0.4,0.1c0.4,0,0.7-0.2,0.9-0.5c0.2-0.3,0.3-0.9,0.3-1.7V16.5
				c0-0.4,0-0.8,0-1.2c0-0.4,0-0.7,0-1c-0.3,0-0.7,0-1.1,0c-0.4,0-0.7,0-1,0v-1.6h6.9v1.4c-0.4,0-0.8,0.1-1,0.2
				c-0.3,0.1-0.5,0.3-0.6,0.7c-0.1,0.3-0.2,0.8-0.2,1.4v7.5c0,2.4-0.4,4.1-1.2,5.1C136.4,30,135.2,30.5,133.6,30.5z"/>
			<path class="st0" d="M151.2,14.1c-0.4,0-0.8,0.1-1,0.2c-0.3,0.1-0.4,0.3-0.5,0.6c-0.1,0.3-0.2,0.7-0.2,1.2v6.6
				c0,1,0.1,1.9,0.3,2.6c0.2,0.7,0.5,1.3,0.8,1.8c0.4,0.5,0.8,0.9,1.3,1.1c0.5,0.2,1.2,0.4,1.9,0.4c1,0,1.8-0.2,2.5-0.6
				c0.7-0.4,1.2-1.1,1.5-2c0.3-0.9,0.5-1.9,0.5-3.1l0-6.6c0-0.4,0-0.8,0-1.2c0-0.4,0-0.7,0.1-0.9c-0.3,0-0.6,0-1,0
				c-0.4,0-0.7,0-0.9,0v-1.6h5.3v1.4c-0.4,0-0.8,0.1-1.1,0.2c-0.3,0.1-0.4,0.4-0.5,0.7s-0.1,0.8-0.1,1.5l0,6c0,1.3-0.2,2.4-0.5,3.4
				c-0.3,1-0.8,1.8-1.3,2.5c-0.6,0.7-1.3,1.2-2.2,1.5c-0.8,0.3-1.8,0.5-2.9,0.5c-1.4,0-2.5-0.2-3.4-0.6c-0.9-0.4-1.6-0.9-2.2-1.6
				c-0.5-0.7-0.9-1.6-1.1-2.6c-0.2-1-0.3-2.1-0.3-3.3v-5.7c0-0.4,0-0.9,0-1.3c0-0.5,0-0.8,0.1-1.1c-0.3,0-0.6,0-1,0
				c-0.4,0-0.7,0-0.9,0v-1.6h6.6V14.1z"/>
			<path class="st0" d="M167,30.1v-1.4c0.5,0,0.8-0.1,1.1-0.2c0.2-0.1,0.4-0.4,0.5-0.7c0.1-0.4,0.1-0.8,0.1-1.5v-9.9
				c0-0.4,0-0.8,0-1.2c0-0.4,0-0.7,0.1-0.9c-0.3,0-0.6,0-1,0c-0.4,0-0.7,0-0.9,0v-1.6h6.6v1.4c-0.4,0-0.8,0.1-1.1,0.2
				c-0.3,0.1-0.4,0.4-0.5,0.7c-0.1,0.3-0.1,0.8-0.1,1.5v9.9c0,0.4,0,0.9,0,1.2c0,0.4,0,0.7-0.1,0.9l3.8,0c1,0,1.8-0.3,2.3-1
				c0.5-0.7,0.8-1.7,0.8-3.1h1.4l-0.1,5.7H167z"/>
			<path class="st0" d="M191.4,14.1c-0.4,0-0.8,0.1-1.1,0.2c-0.3,0.1-0.4,0.4-0.5,0.7c-0.1,0.3-0.1,0.8-0.1,1.5v9.8
				c0,0.4,0,0.9,0,1.2c0,0.4,0,0.7-0.1,0.9c0.3,0,0.6,0,1,0c0.4,0,0.7,0,0.9,0v1.6h-6.6v-1.4c0.5,0,0.8-0.1,1.1-0.2
				c0.2-0.1,0.4-0.4,0.5-0.7c0.1-0.4,0.1-0.8,0.1-1.5v-9.9c0-0.4,0-0.8,0-1.2c0-0.4,0-0.7,0.1-0.9c-0.3,0-0.6,0-1,0
				c-0.4,0-0.7,0-0.9,0v-1.6h6.6V14.1z"/>
			<path class="st0" d="M205.1,30.5c-1.6,0-2.9-0.3-4-0.8c-1.1-0.5-2-1.2-2.7-2.1c-0.7-0.9-1.2-1.9-1.5-2.9
				c-0.3-1.1-0.5-2.1-0.5-3.2c0-1,0.2-2.1,0.5-3.2c0.3-1.1,0.9-2,1.6-2.9c0.7-0.9,1.6-1.6,2.7-2.2c1.1-0.5,2.4-0.8,3.8-0.8
				c1.5,0,2.8,0.3,3.9,0.8c1.1,0.5,2,1.3,2.7,2.2c0.7,0.9,1.2,1.9,1.6,2.9c0.3,1.1,0.5,2.1,0.5,3.1c0,1-0.2,2.1-0.5,3.1
				c-0.3,1.1-0.9,2-1.6,2.9c-0.7,0.9-1.6,1.6-2.7,2.2C207.8,30.2,206.5,30.5,205.1,30.5z M205.2,28.9c0.9,0,1.7-0.2,2.3-0.6
				c0.6-0.4,1.2-1,1.5-1.7s0.7-1.5,0.9-2.3c0.2-0.8,0.3-1.7,0.3-2.5c0-1.1-0.1-2.1-0.3-3.1c-0.2-1-0.6-1.8-1-2.5
				c-0.5-0.7-1-1.3-1.7-1.7c-0.7-0.4-1.5-0.6-2.4-0.6c-0.9,0-1.7,0.2-2.3,0.7c-0.6,0.4-1.2,1-1.6,1.7c-0.4,0.7-0.7,1.5-0.9,2.3
				c-0.2,0.8-0.3,1.7-0.3,2.5c0,0.8,0.1,1.7,0.3,2.6c0.2,0.9,0.5,1.8,0.9,2.6c0.4,0.8,1,1.5,1.7,2C203.4,28.7,204.3,28.9,205.2,28.9
				z"/>
			<path class="st0" d="M238.5,18.2c-0.1-0.9-0.4-1.6-0.7-2.3c-0.4-0.7-0.8-1.2-1.4-1.5c-0.6-0.4-1.3-0.5-2.2-0.5
				c-0.8,0-1.5,0.2-2,0.7c-0.5,0.5-0.8,1-0.8,1.7c0,0.6,0.2,1,0.5,1.5c0.3,0.4,0.8,0.8,1.4,1.1c0.6,0.3,1.3,0.7,2.2,1.1
				c0.6,0.3,1.3,0.6,1.9,0.9c0.6,0.3,1.2,0.7,1.8,1.2c0.5,0.4,1,1,1.3,1.5c0.3,0.6,0.5,1.3,0.5,2.1c0,1-0.3,1.8-0.8,2.6
				c-0.5,0.7-1.2,1.3-2.1,1.7c-0.9,0.4-2,0.6-3.3,0.6c-0.7,0-1.4-0.1-2.2-0.3c-0.8-0.2-1.5-0.5-2.1-0.9l0.1,1.1h-1.7l0-5.6h1.4
				c0.2,1.4,0.7,2.5,1.6,3.2c0.9,0.7,1.9,1.1,3.1,1.1c0.6,0,1.2-0.1,1.6-0.3c0.5-0.2,0.9-0.5,1.1-0.9c0.3-0.4,0.4-0.8,0.4-1.3
				c0-0.6-0.2-1.2-0.6-1.6c-0.4-0.4-0.9-0.8-1.5-1.1c-0.6-0.3-1.2-0.6-1.9-0.9c-0.7-0.3-1.4-0.6-2.1-1c-0.7-0.4-1.2-0.8-1.7-1.2
				c-0.5-0.5-0.9-1-1.2-1.6c-0.3-0.6-0.4-1.3-0.4-2.1c0-0.5,0.1-1,0.3-1.5c0.2-0.5,0.5-1,0.9-1.5c0.4-0.5,1-0.8,1.7-1.1
				c0.7-0.3,1.6-0.4,2.6-0.4c0.7,0,1.4,0.1,2.2,0.3c0.8,0.2,1.5,0.5,2.1,0.9l-0.1-1h1.7v5.7H238.5z"/>
			<path class="st0" d="M252.1,14.1c-0.4,0-0.8,0.1-1,0.2c-0.3,0.1-0.4,0.3-0.5,0.6c-0.1,0.3-0.2,0.7-0.2,1.2v6.6
				c0,1,0.1,1.9,0.3,2.6c0.2,0.7,0.5,1.3,0.8,1.8c0.4,0.5,0.8,0.9,1.3,1.1s1.2,0.4,1.9,0.4c1,0,1.8-0.2,2.5-0.6
				c0.7-0.4,1.2-1.1,1.5-2c0.3-0.9,0.5-1.9,0.5-3.1l0-6.6c0-0.4,0-0.8,0-1.2c0-0.4,0-0.7,0.1-0.9c-0.3,0-0.6,0-1,0
				c-0.4,0-0.7,0-0.9,0v-1.6h5.3v1.4c-0.4,0-0.8,0.1-1.1,0.2c-0.3,0.1-0.4,0.4-0.5,0.7c-0.1,0.3-0.1,0.8-0.1,1.5l0,6
				c0,1.3-0.2,2.4-0.5,3.4c-0.3,1-0.8,1.8-1.3,2.5c-0.6,0.7-1.3,1.2-2.2,1.5c-0.8,0.3-1.8,0.5-2.9,0.5c-1.4,0-2.5-0.2-3.4-0.6
				c-0.9-0.4-1.6-0.9-2.2-1.6c-0.5-0.7-0.9-1.6-1.1-2.6c-0.2-1-0.3-2.1-0.3-3.3v-5.7c0-0.4,0-0.9,0-1.3c0-0.5,0-0.8,0.1-1.1
				c-0.3,0-0.6,0-1,0c-0.4,0-0.7,0-0.9,0v-1.6h6.6V14.1z"/>
			<path class="st0" d="M280.9,18.3c-0.2-1.4-0.7-2.5-1.5-3.3c-0.8-0.8-1.8-1.1-3-1.1c-0.9,0-1.7,0.2-2.3,0.6
				c-0.7,0.4-1.3,0.9-1.7,1.6c-0.5,0.7-0.8,1.4-1.1,2.3c-0.2,0.9-0.4,1.8-0.4,2.8c0,1.5,0.2,2.8,0.7,3.9c0.5,1.1,1.1,2,2,2.6
				c0.9,0.6,1.8,1,3,1c1.1,0,2.1-0.3,3.1-0.8c1-0.5,1.9-1.3,2.6-2.2l1,0.9c-0.8,1.1-1.6,1.9-2.5,2.4c-0.9,0.6-1.7,0.9-2.6,1.1
				s-1.6,0.3-2.3,0.3c-1.3,0-2.4-0.2-3.5-0.7c-1-0.5-1.9-1.1-2.7-1.9c-0.8-0.8-1.3-1.7-1.7-2.8c-0.4-1.1-0.6-2.2-0.6-3.5
				c0-1.1,0.2-2.3,0.5-3.4c0.4-1.1,0.9-2.1,1.6-3c0.7-0.9,1.6-1.6,2.7-2.1c1.1-0.5,2.4-0.8,3.8-0.8c0.7,0,1.5,0.1,2.3,0.3
				c0.8,0.2,1.5,0.5,2.2,1l-0.1-1.1h1.7v5.8H280.9z"/>
			<path class="st0" d="M286.5,30.1v-1.4c0.5,0,0.8-0.1,1.1-0.4c0.3-0.3,0.5-0.6,0.7-1.1c0.2-0.4,0.4-0.9,0.6-1.5l4.9-13.4h1.3
				l5.4,13.7c0.1,0.3,0.2,0.7,0.4,1.2c0.2,0.5,0.3,1,0.3,1.3c0.3,0,0.6,0,0.8,0c0.3,0,0.5,0,0.7,0v1.6h-6.3v-1.4
				c0.5,0,0.9-0.1,1-0.3c0.2-0.2,0.3-0.5,0.2-0.8c0-0.3-0.1-0.7-0.3-1.1l-0.6-1.7l-5.7,0.1l-0.5,1.7c-0.1,0.3-0.2,0.6-0.3,1
				c-0.1,0.4-0.3,0.7-0.4,1c0.3,0,0.6,0,1,0c0.4,0,0.6,0,0.9,0v1.7H286.5z M291.6,23.3h4.7l-1.3-3.6c-0.2-0.6-0.4-1.1-0.6-1.7
				c-0.2-0.6-0.3-1.1-0.4-1.6h0c-0.1,0.3-0.2,0.8-0.4,1.3c-0.1,0.5-0.3,1.1-0.6,1.8L291.6,23.3z"/>
		</g>
	</g>
	<g>
		<g>
			<g>
				<g>
					<path class="st0" d="M53.1,26l-1.6,1.6c0.3,1.2,0.4,2.5,0.4,3.8c0,10.3-8.6,18.6-19,18c-9.1-0.5-16.5-7.9-17-17
						c-0.6-10.4,7.7-19,18-19c2.3,0,4.6,0.4,6.6,1.3l0.6-0.6l0.9-0.9c-2.9-1.3-6.2-1.9-9.7-1.6c-10,0.8-17.9,9.2-18.3,19.2
						c-0.4,12.2,10.1,22,22.5,20.5c9.6-1.2,17-9.4,17.3-19C53.9,30,53.7,27.9,53.1,26z"/>
				</g>
				<g>
					<path class="st0" d="M55.8,11.4v2.7L54,16c-0.1,0.1-0.1,0.2-0.1,0.3v5c0,0.4-0.1,0.7-0.4,0.9l-13,13c-2,2-4.7,3.1-7.4,3.1
						c-2.7,0-5.4-1-7.4-3.1l-1.2-1.2l18.4-18.4l1.4-1.4c0.6,0.3,1.1,0.7,1.6,1.1l-1.4,1.4L27.1,34.1c1.6,1.5,3.7,2.4,5.9,2.4
						c2.3,0,4.4-0.9,6-2.5L50,23.1l1.9-1.9c0.1-0.1,0.1-0.2,0.1-0.3v-4.9c0-0.3,0.1-0.7,0.4-0.9L55.8,11.4z"/>
				</g>
			</g>
		</g>
	</g>
</g>
</svg>
